<svg width="398" height="387" viewBox="0 0 398 387" fill="none" xmlns="http://www.w3.org/2000/svg">
<circle cx="209" cy="189" r="189" fill="black"/>
<path d="M124.5 174.5C98.5 190.9 44.3333 190.333 20.5 188L0 246L10 239.5C72.8 201.9 116 191.833 124.5 174.5Z" fill="white"/>
<path d="M154.081 122.828C123.596 118.878 82.2371 83.8945 65.3685 66.8968L12.5876 98.4947L24.4354 99.8661C96.7856 110.959 136.479 130.758 154.081 122.828Z" fill="white"/>
<path d="M130.652 223.693C117.267 251.366 71.0032 279.544 49.5446 290.175L62.8367 350.238L67.8832 339.431C101.279 274.298 132.61 242.899 130.652 223.693Z" fill="white"/>
<rect x="202" y="64" width="13" height="323" fill="white"/>
<rect x="249" y="168" width="13" height="202" fill="#BD00FF"/>
<rect x="296" y="284" width="13" height="103" fill="white"/>
</svg>
